<?xml version="1.0" encoding="UTF-8"?><svg id="_レイヤー_2" xmlns="http://www.w3.org/2000/svg" viewBox="0 0 468.15 236.78"><defs><style>.cls-1{fill:#fff;}.cls-2{fill:#f2f2f2;}</style></defs><g id="_レイヤー_1-2"><g id="_生成オブジェクト"><path class="cls-2" d="M294.15,86.43c-1.04,2.18-6.09,3.12-3.97,6.94,10.43,24.06-18.2,22.56-28.06,38.78,20.17-15.72,45.02-13.34,60.76,7.48,67.68,1.98,47.87,97.51-11.86,96.02-88.5,1.62-185.43,1.24-273.57.41-70.36-10.11-28.43-83.01,18.75-89.86,11.45,4.56,12.54-10.52,19.04-17.54,44.01-35.98,39.48,7.54,69.78-44.2,22.05-23.61,72.46-37.6,88.95-1.09,19.63-15.08,41.64-8.71,60.18,3.06Z"/><path class="cls-2" d="M120.86,70.1s-.03,0-.04,0c.01,0,.02,0,.03,0-39.02-13.41-94.83,55.18-58.47,77.3.69-5.49,1.27-10.77,1.89-15.8,1.07,3.57,3.97,3.46,8.53-2.93,12.61-16.93,34.2-23.44,53.75-16.39,6.5-23.83,27.5-43.48,51.52-47.56,18.94-9.36,44.95-2.06,53.46,18.66,14.37-9.31,28.33-12.6,44.12-5.07,22.14,17.06,19.7-8.57,39.19-17.44-36.01-86.03-165.06-78.95-194,9.25ZM68.71,107.24c3.43-11.77,9.23-21.25,20.76-27.88-9.79,7.35-16.63,17.96-20.76,27.88Z"/><path class="cls-2" d="M431.39,128.8c-10.22-42.31-31.61-13.4-59.9-63.76-26.34-21.56-68.45-8.52-79.97,22.42.71.55,1.41,1.12,2.1,1.7-2.66-1.28-4.87-.37-5.86,4.22,1.38,26.1-.5,16.11,22.1,24.72,12.93,23.91,42.63,18.02,54.47,44.52,10.19,22,3.06,46.69-16.67,62.58,37.86-1.29,116.26,11.79,120.12-44.91,2.94-24.27-12.13-46.2-36.39-51.48ZM303.01,99.41c2.08,3.04,3.8,6.33,5,9.82-1.25-3.19-3.02-6.65-5-9.82Z"/><path class="cls-1" d="M145.21,101.3c-28.29-8.14-58.24,10.64-84.72,45.68,25.47-47.71,59.26-68.42,84.72-45.68Z"/></g></g></svg>